<?xml version="1.0" encoding="UTF-8" standalone="no"?>
<!-- Created with Inkscape (http://www.inkscape.org/) -->

<svg
   width="210mm"
   height="297mm"
   viewBox="0 0 210 297"
   version="1.1"
   id="svg1"
   xml:space="preserve"
   inkscape:export-filename="Logo.png"
   inkscape:export-xdpi="96"
   inkscape:export-ydpi="96"
   inkscape:version="1.3.2 (091e20e, 2023-11-25, custom)"
   sodipodi:docname="Logo.svg"
   xmlns:inkscape="http://www.inkscape.org/namespaces/inkscape"
   xmlns:sodipodi="http://sodipodi.sourceforge.net/DTD/sodipodi-0.dtd"
   xmlns:xlink="http://www.w3.org/1999/xlink"
   xmlns="http://www.w3.org/2000/svg"
   xmlns:svg="http://www.w3.org/2000/svg"><sodipodi:namedview
     id="namedview1"
     pagecolor="#ffffff"
     bordercolor="#000000"
     borderopacity="0.25"
     inkscape:showpageshadow="2"
     inkscape:pageopacity="0.0"
     inkscape:pagecheckerboard="0"
     inkscape:deskcolor="#d1d1d1"
     inkscape:document-units="mm"
     inkscape:zoom="1.0570195"
     inkscape:cx="379.84163"
     inkscape:cy="382.6798"
     inkscape:window-width="1920"
     inkscape:window-height="1017"
     inkscape:window-x="-8"
     inkscape:window-y="-8"
     inkscape:window-maximized="1"
     inkscape:current-layer="layer1" /><defs
     id="defs1"><rect
       x="309.06084"
       y="698.39723"
       width="335.81936"
       height="239.48871"
       id="rect4" /><linearGradient
       id="linearGradient3"
       inkscape:collect="always"><stop
         style="stop-color:#02a9e1;stop-opacity:1;"
         offset="0"
         id="stop3" /><stop
         style="stop-color:#5ac3bc;stop-opacity:1;"
         offset="1"
         id="stop4" /></linearGradient><linearGradient
       inkscape:collect="always"
       xlink:href="#linearGradient3"
       id="linearGradient4"
       x1="65.84267"
       y1="107.96782"
       x2="138.05722"
       y2="107.96782"
       gradientUnits="userSpaceOnUse" /><filter
       style="color-interpolation-filters:sRGB;"
       inkscape:label="Drop Shadow"
       id="filter6"
       x="-0.034342112"
       y="-0.034342112"
       width="1.0742233"
       height="1.0742233"><feFlood
         result="flood"
         in="SourceGraphic"
         flood-opacity="0.525490"
         flood-color="rgb(47,40,71)"
         id="feFlood5" /><feGaussianBlur
         result="blur"
         in="SourceGraphic"
         stdDeviation="0.200000"
         id="feGaussianBlur5" /><feOffset
         result="offset"
         in="blur"
         dx="0.400000"
         dy="0.400000"
         id="feOffset5" /><feComposite
         result="comp1"
         operator="in"
         in="flood"
         in2="offset"
         id="feComposite5" /><feComposite
         result="comp2"
         operator="over"
         in="SourceGraphic"
         in2="comp1"
         id="feComposite6" /></filter><filter
       style="color-interpolation-filters:sRGB;"
       inkscape:label="Drop Shadow"
       id="filter8"
       x="-0.010619376"
       y="-0.010618059"
       width="1.0300882"
       height="1.0300845"><feFlood
         result="flood"
         in="SourceGraphic"
         flood-opacity="0.525490"
         flood-color="rgb(47,40,71)"
         id="feFlood6" /><feGaussianBlur
         result="blur"
         in="SourceGraphic"
         stdDeviation="0.200000"
         id="feGaussianBlur6" /><feOffset
         result="offset"
         in="blur"
         dx="0.400000"
         dy="0.400000"
         id="feOffset6" /><feComposite
         result="comp1"
         operator="in"
         in="flood"
         in2="offset"
         id="feComposite7" /><feComposite
         result="comp2"
         operator="over"
         in="SourceGraphic"
         in2="comp1"
         id="feComposite8" /></filter></defs><g
     inkscape:label="Camada 1"
     inkscape:groupmode="layer"
     id="layer1"><circle
       style="fill:url(#linearGradient4);fill-opacity:1;stroke-width:4;stroke-linecap:square;stroke:#ffffff;stroke-opacity:1;stroke-dasharray:none;filter:url(#filter6)"
       id="path3"
       cx="101.94994"
       cy="107.96782"
       r="36.107273" /><path
       style="fill:#ffffff;stroke-width:1.16818;filter:url(#filter8)"
       d="m 99.87463,130.47303 c -4.18479,-0.39901 -8.164533,-1.94825 -11.605152,-4.51768 -1.089757,-0.81382 -3.496048,-3.22012 -4.309882,-4.30988 -6.146465,-8.23048 -6.146465,-19.13045 0,-27.360924 0.813834,-1.089754 3.220125,-3.496057 4.309882,-4.309879 8.230492,-6.146467 19.130452,-6.146467 27.360932,0 1.08977,0.813822 3.49606,3.220125 4.30988,4.309879 6.14647,8.230474 6.14647,19.130444 0,27.360924 -0.81382,1.08976 -3.22011,3.49606 -4.30988,4.30988 -4.59025,3.42798 -10.2286,5.04467 -15.75578,4.51768 z m -0.8007,-6.58993 c -0.32548,-4.92205 -2.15637,-9.17448 -5.22275,-12.13034 -2.368189,-2.28283 -5.007625,-3.50482 -8.097078,-3.74876 l -0.785552,-0.062 0.06332,0.96086 c 0.272757,4.13891 1.867446,7.7816 4.686969,10.70624 2.313339,2.39959 4.912461,3.9192 8.099001,4.73517 0.64552,0.1653 1.20371,0.30303 1.24042,0.30606 0.0367,0.004 0.0438,-0.34221 0.0157,-0.76721 z m 7.20168,0.40455 c 2.98801,-0.75878 5.63915,-2.32776 7.90545,-4.67857 2.81952,-2.92464 4.41421,-6.56733 4.68697,-10.70624 l 0.0633,-0.96086 -0.78555,0.062 c -3.08945,0.24394 -5.72889,1.46593 -8.09708,3.74876 -3.06687,2.95633 -4.89714,7.20785 -5.22289,12.13219 l -0.0513,0.77457 0.24352,-0.0572 c 0.13393,-0.0314 0.69979,-0.17305 1.25749,-0.31468 z m -3.6362,-13.59845 c 1.00121,-0.24584 1.84396,-1.13678 2.05869,-2.17642 0.40095,-1.94114 -1.35478,-3.69686 -3.29591,-3.29593 -0.7166,0.14801 -1.38521,0.59495 -1.78016,1.18997 -1.41645,2.13396 0.52802,4.89362 3.01738,4.28238 z m 15.1573,-8.57482 c -0.0336,-0.10922 -0.25432,-0.62355 -0.4904,-1.14281 -2.75238,-6.054095 -8.77668,-9.962307 -15.35636,-9.962307 -5.92966,0 -11.360976,3.117427 -14.510356,8.328554 -0.387332,0.64091 -1.196481,2.322043 -1.336405,2.776563 l -0.06121,0.19871 h 15.907911 15.90792 z"
       id="path4" /></g></svg>
